name kv08_filtered_grf.mot
datacolumns 37
datarows 11
range 0.425500 0.430500
endheader
time	1_ground_force_vx	1_ground_force_vy	1_ground_force_vz	1_ground_force_px	1_ground_force_py	1_ground_force_pz	1_ground_torque_x	1_ground_torque_y	1_ground_torque_z	2_ground_force_vx	2_ground_force_vy	2_ground_force_vz	2_ground_force_px	2_ground_force_py	2_ground_force_pz	2_ground_torque_x	2_ground_torque_y	2_ground_torque_z	3_ground_force_vx	3_ground_force_vy	3_ground_force_vz	3_ground_force_px	3_ground_force_py	3_ground_force_pz	3_ground_torque_x	3_ground_torque_y	3_ground_torque_z	4_ground_force_vx	4_ground_force_vy	4_ground_force_vz	4_ground_force_px	4_ground_force_py	4_ground_force_pz	4_ground_torque_x	4_ground_torque_y	4_ground_torque_z
            0.425500	            0.000001	            0.000073	            0.000036	            0.450000	            0.000000	            0.900000	           -0.000164	           -0.000222	           -0.000017	           -0.000000	            0.000000	            0.000000	           -0.183930	            0.000000	            0.159135	            0.000000	           -0.000000	            0.000000	            9.771555	          337.612402	           72.786195	            0.385640	            0.966804	            1.071130	            0.012651	            0.437107	            0.094236	           -3.751578	          344.467942	           49.652827	           -0.369153	            0.966117	            1.107762	           -0.005746	            0.527621	            0.076053
            0.426000	           -0.000024	            0.000207	            0.000156	            0.450000	            0.000000	            0.900000	           -0.000193	           -0.000160	           -0.000024	           -0.000000	            0.000000	            0.000000	           -0.183930	            0.000000	            0.159135	            0.000000	           -0.000000	            0.000000	            9.757668	          337.903575	           72.812987	            0.385642	            0.966790	            1.071128	            0.012487	            0.432412	            0.093178	           -3.644744	          344.546646	           49.703960	           -0.369157	            0.966105	            1.107764	           -0.005823	            0.550460	            0.079409
            0.426500	           -0.000047	            0.000332	            0.000269	            0.450000	            0.000000	            0.900000	           -0.000219	           -0.000101	           -0.000030	           -0.000000	            0.000000	            0.000000	           -0.183930	            0.000000	            0.159135	            0.000000	           -0.000000	            0.000000	            9.733364	          338.186826	           72.839137	            0.385643	            0.966777	            1.071125	            0.012297	            0.427251	            0.092022	           -3.528680	          344.635147	           49.757550	           -0.369161	            0.966093	            1.107766	           -0.005876	            0.573864	            0.082853
            0.427000	           -0.000069	            0.000449	            0.000375	            0.450000	            0.000000	            0.900000	           -0.000243	           -0.000045	           -0.000036	           -0.000000	            0.000000	            0.000000	           -0.183930	            0.000000	            0.159135	            0.000000	           -0.000000	            0.000000	            9.698777	          338.461915	           72.864455	            0.385645	            0.966764	            1.071122	            0.012082	            0.421635	            0.090770	           -3.403638	          344.733438	           49.813320	           -0.369166	            0.966080	            1.107768	           -0.005902	            0.597820	            0.086384
            0.427500	           -0.000089	            0.000558	            0.000474	            0.450000	            0.000000	            0.900000	           -0.000265	            0.000009	           -0.000042	           -0.000000	            0.000000	            0.000000	           -0.183930	            0.000000	            0.159135	            0.000000	           -0.000000	            0.000000	            9.654054	          338.728624	           72.888748	            0.385646	            0.966751	            1.071119	            0.011844	            0.415575	            0.089425	           -3.269879	          344.841489	           49.870987	           -0.369170	            0.966068	            1.107770	           -0.005901	            0.622313	            0.089999
            0.428000	           -0.000108	            0.000659	            0.000566	            0.450000	            0.000000	            0.900000	           -0.000284	            0.000060	           -0.000047	           -0.000000	            0.000000	            0.000000	           -0.183930	            0.000000	            0.159135	            0.000000	           -0.000000	            0.000000	            9.600620	          338.988042	           72.905682	            0.385649	            0.966738	            1.071117	            0.011586	            0.409083	            0.087981	           -3.126953	          344.960100	           49.924444	           -0.369175	            0.966054	            1.107770	           -0.005868	            0.647331	            0.093685
            0.428500	           -0.000125	            0.000751	            0.000649	            0.450000	            0.000000	            0.900000	           -0.000300	            0.000108	           -0.000052	           -0.000000	            0.000000	            0.000000	           -0.183930	            0.000000	            0.159135	            0.000000	           -0.000000	            0.000000	            9.537380	          339.238709	           72.921188	            0.385651	            0.966726	            1.071114	            0.011307	            0.402169	            0.086448	           -2.975876	          345.088358	           49.979204	           -0.369179	            0.966041	            1.107771	           -0.005802	            0.672856	            0.097450
            0.429000	           -0.000141	            0.000835	            0.000726	            0.450000	            0.000000	            0.900000	           -0.000315	            0.000153	           -0.000056	           -0.000000	            0.000000	            0.000000	           -0.183930	            0.000000	            0.159135	            0.000000	           -0.000000	            0.000000	            9.464517	          339.480472	           72.935061	            0.385654	            0.966713	            1.071112	            0.011008	            0.394845	            0.084830	           -2.816951	          345.226176	           50.034965	           -0.369184	            0.966028	            1.107772	           -0.005703	            0.698873	            0.101290
            0.429500	           -0.000155	            0.000910	            0.000795	            0.450000	            0.000000	            0.900000	           -0.000327	            0.000195	           -0.000060	           -0.000000	            0.000000	            0.000000	           -0.183930	            0.000000	            0.159135	            0.000000	           -0.000000	            0.000000	            9.382226	          339.713199	           72.947094	            0.385656	            0.966700	            1.071109	            0.010692	            0.387121	            0.083127	           -2.650492	          345.373450	           50.091418	           -0.369189	            0.966015	            1.107773	           -0.012826	           -1.960647	           18.624501
            0.430000	           -0.000168	            0.000977	            0.000856	            0.450000	            0.000000	            0.900000	           -0.000337	            0.000234	           -0.000063	           -0.000000	            0.000000	            0.000000	           -0.183930	            0.000000	            0.159135	            0.000000	           -0.000000	            0.000000	            9.290710	          339.936776	           72.957075	            0.385658	            0.966688	            1.071107	            0.010359	            0.379008	            0.081342	           -2.476822	          345.530056	           50.148252	           -0.369194	            0.966002	            1.107774	            0.026470	           -1.938473	           18.650745
            0.430500	           -0.000179	            0.001036	            0.000910	            0.450000	            0.000000	            0.900000	           -0.000344	            0.000270	           -0.000066	           -0.000000	            0.000000	            0.000000	           -0.183930	            0.000000	            0.159135	            0.000000	           -0.000000	            0.000000	            9.191242	          340.152261	           72.959289	            0.385662	            0.966676	            1.071104	            0.010012	            0.370518	            0.079472	           -2.295607	          345.696554	           50.200353	           -0.369200	            0.965988	            1.107774	            0.066099	           -1.915583	           18.677155
